<svg width="7394" height="1139" viewBox="0 0 7394 1139" fill="none" xmlns="http://www.w3.org/2000/svg">
<path fill-rule="evenodd" clip-rule="evenodd" d="M6296.19 15.2549L6623.35 1127.22L6563.42 1127.43C6541.82 1127.73 6520.09 1128.02 6499.16 1126.15L6499.12 1126.15L6499.07 1126.14C6491.39 1125.43 6485.22 1122.32 6481.21 1119.78C6476.92 1117.07 6473.21 1113.8 6470.17 1110.61C6464.5 1104.65 6458.52 1096.15 6455.71 1086.65C6438.59 1028.92 6396.51 878.838 6396.51 878.838H6102.13C6102.13 878.838 6059.24 1029.74 6044.66 1084.68L6044.63 1084.78L6044.61 1084.87C6042.21 1093.62 6038.09 1106.58 6027.49 1116.04C6015.54 1126.72 6000.97 1128.42 5988.4 1127.57C5972.61 1126.51 5879.63 1127.22 5879.63 1127.22C5879.63 1127.22 6088.48 397.864 6185.25 67.5199C6185.25 67.5199 6191.01 47.9062 6194.26 40.5542C6197.93 32.2605 6203.9 22.4608 6215.33 16.2207C6225.82 10.4915 6237.06 9.9793 6245.79 10.216C6254.46 10.4509 6265.16 11.6834 6277.12 13.0606L6296.19 15.2549ZM6249.24 362.397L6143.92 731.495H6354.85L6249.24 362.397Z" fill="white"/>
<path fill-rule="evenodd" clip-rule="evenodd" d="M5666.16 239.081L5817.16 220.581C5818.06 225.355 5821.59 233 5824.66 250.581C5827.02 264.062 5828.29 288.232 5828.37 303.399C5829.35 487.062 5829.44 670.724 5828.65 854.387L5828.65 854.403L5828.65 854.419C5827.79 1010.04 5699.11 1137.05 5544.25 1137.55C5474.22 1137.8 5404.13 1137.71 5334.12 1137.63C5299.16 1137.59 5175.16 1137.55 5175.16 1137.55V298.581L5323.15 280.581V992.335C5340.98 992.405 5359.72 992.471 5376.72 992.263C5396.26 991.973 5415.22 992.131 5433.81 992.286C5476.32 992.639 5516.84 992.977 5557.69 987.909L5557.71 987.906L5557.73 987.904C5629.01 979.177 5677.15 923.955 5677.84 851.14L5677.84 851.134C5679.61 669.672 5678.8 488.171 5677.84 306.466L5677.84 306.394V306.323C5677.84 298.13 5676.44 289.27 5674.08 278.346C5673.39 275.12 5672.55 271.491 5671.66 267.617C5669.82 259.571 5667.75 247.799 5666.16 239.081Z" fill="white"/>
<path fill-rule="evenodd" clip-rule="evenodd" d="M4606.16 367.581L4752.66 349.581V853.228C4752.79 890.677 4747.78 927.783 4733.54 962.408C4719.28 997.048 4698.33 1028.52 4671.87 1055.01C4645.42 1081.49 4613.99 1102.47 4579.39 1116.72C4544.8 1130.97 4507.73 1138.21 4470.33 1138.02L4470.32 1138.02C4464.85 1137.99 4459.29 1137.98 4453.65 1137.98C4408.68 1137.92 4358.8 1137.87 4312.21 1126.07C4185.82 1094.12 4106.26 979.02 4106.16 850.842L4106.16 427.581L4253.16 410.081V842.293C4253.16 888.955 4270.91 926.196 4296.45 951.708C4321.99 977.22 4359.31 992.956 4406.16 992.956C4407.39 992.956 4408.62 992.956 4409.84 992.956C4438.27 992.964 4464.27 992.971 4489.15 988.775L4489.3 988.749L4489.45 988.725C4521.65 983.674 4550.98 967.202 4572.11 942.289C4593.23 917.375 4606.38 875.01 4606.16 842.293C4606.52 739.519 4606.16 367.581 4606.16 367.581Z" fill="white"/>
<path fill-rule="evenodd" clip-rule="evenodd" d="M420.663 15.2489L644.161 775.081L80.1614 854.581C154.425 600.177 233.96 327.478 308.224 73.1042L308.227 73.0924C311.269 62.6813 314.614 51.2341 317.909 43.3994C321.485 34.8967 327.174 24.6132 338.268 17.7184C349.024 11.0333 360.685 10.1754 369.856 10.3083C378.761 10.4375 401.659 13.0675 401.659 13.0675L420.663 15.2489ZM373.707 362.477L268.412 731.085H479.23L373.707 362.477Z" fill="white"/>
<path d="M3482.16 845.497C3482.27 886.841 3495.92 921.164 3517.49 945.863C3538.97 970.454 3570.5 987.151 3611.17 990.978L3611.21 990.982L3611.25 990.985C3653.18 995.048 3685.6 995.581 3732.66 990.978C3782.66 984.081 3831.85 915.867 3832.31 852.486L3832.31 852.48C3832.68 804.987 3832.56 757.587 3832.44 709.331V709.321L3832.44 709.174C3832.4 693.626 3832.36 677.988 3832.34 662.23H3664.38V517.986H3965.06C3970.35 524.144 3976.16 531.694 3977.76 534.444C3979.37 537.193 3981.78 542.313 3981.8 549.13C3981.88 581.087 3982.24 613.276 3982.6 645.601V645.602V645.609C3983.47 723.207 3984.34 801.594 3981.37 879.447C3978.4 957.302 3944.25 1013.47 3894.84 1060.24C3845.42 1107.01 3779.06 1138.02 3709.99 1138.02C3659.82 1138.15 3589.56 1138.33 3537.79 1125.36L3537.79 1125.36C3412.18 1093.91 3330.26 979.338 3330.16 852.211V521.081L3482.16 503.081V845.497Z" fill="white"/>
<path fill-rule="evenodd" clip-rule="evenodd" d="M1573.15 1127.06V733.581L1722.16 715.581L1722.18 981.985L1813.62 981.835C1813.62 981.835 1922.73 982.837 1954.41 978.444L1954.43 978.442L1954.45 978.44C2029.53 968.115 2076.91 912.325 2078.16 834.726C2078.79 797.461 2078.16 672.581 2078.16 672.581L2229.16 654.081C2229.16 654.081 2229.77 764.825 2229.16 781.968C2227.61 825.727 2224.26 869.971 2215.55 913.599C2189.35 1044.98 2069.97 1126.81 1940.36 1127.26L1940.34 1127.26H1940.31C1837.21 1127.44 1676.25 1127.25 1573.15 1127.06Z" fill="white"/>
<path fill-rule="evenodd" clip-rule="evenodd" d="M1573.16 13.3503L1573.16 644.081L1722.16 623.081L1722.13 158.045L1813.53 158.195C1813.53 158.195 1922.59 157.196 1954.26 161.577L1954.28 161.579L1954.29 161.581C2029.35 171.879 2076.91 227.521 2078.16 304.915C2078.79 342.081 2078.16 572.581 2078.16 572.581L2229.16 551.081C2229.16 551.081 2229.5 374.631 2228.89 357.533C2227.34 313.89 2223.99 269.763 2215.29 226.251C2189.09 95.2175 2069.77 13.5997 1940.22 13.1535L1940.19 13.1535L1940.17 13.1535C1837.11 12.9715 1676.22 13.1684 1573.16 13.3503Z" fill="white"/>
<path fill-rule="evenodd" clip-rule="evenodd" d="M2861.16 462.081L2861.49 156.081H2608.66V13.0811H3264.16V155.081H3013.16V440.581L2861.16 462.081Z" fill="white"/>
<path d="M3832.16 290.581C3831.58 210.451 3778.79 152.467 3699.74 146.038C3699.74 146.038 3661.08 139.563 3596.06 149.685C3531.04 159.807 3483.62 216.543 3482.61 284.323L3482.16 374.581L3330.16 396.081C3330.16 396.081 3330.56 367.081 3330.56 345.196C3331.13 332.298 3331.7 319.276 3332.48 305.858C3334.47 271.498 3337.77 236.502 3346.19 202.178L3346.19 202.173C3376.15 80.0391 3492.35 -1.29104 3615.28 0.0155139L3615.29 0.0157084L3615.28 0.158399L3616.39 0.164013C3662.13 0.393326 3732.3 0.74516 3778.95 13.133C3917.49 49.7193 3980.16 146.038 3980.16 304.081L3832.16 325.081V290.581Z" fill="white"/>
<path fill-rule="evenodd" clip-rule="evenodd" d="M791.161 828.081L937.161 810.581C937.161 810.581 937.255 839.574 937.161 843.174C937.068 846.774 937.879 864.413 940.161 873.581C955.843 936.581 1000.55 985.022 1069.25 991.617C1104.64 994.898 1140.31 993.816 1175.44 988.396L1175.46 988.392C1240.59 978.4 1291.08 921.627 1292.16 853.896C1292.28 845.916 1292.16 767.581 1292.16 767.581L1438.16 750.081C1438.16 871.081 1444.55 995.704 1320.7 1084.63C1272.67 1119.37 1217.71 1140.1 1155.92 1138.05C1145.04 1137.73 1133.57 1137.67 1121.72 1137.61C1083.16 1137.42 1040.59 1137.21 1001.34 1127.64C860.271 1093.62 791.161 972.581 791.161 828.081Z" fill="white"/>
<path fill-rule="evenodd" clip-rule="evenodd" d="M4891.16 333.081L5037.16 315.081V1131.58H4891.16V333.081Z" fill="white"/>
<path fill-rule="evenodd" clip-rule="evenodd" d="M791.161 11.5811H937.161V733.581L791.161 754.081V11.5811Z" fill="white"/>
<path fill-rule="evenodd" clip-rule="evenodd" d="M1438.16 12.5811V663.081L1292.16 683.581L1292.16 12.5811H1438.16Z" fill="white"/>
<path fill-rule="evenodd" clip-rule="evenodd" d="M2861.16 1125.08V578.081L3013.21 560.081V1125.08H2861.16Z" fill="white"/>
<path fill-rule="evenodd" clip-rule="evenodd" d="M2364.16 12.0811H2511.16V511.581L2364.16 532.081V12.0811Z" fill="white"/>
<path fill-rule="evenodd" clip-rule="evenodd" d="M2364.16 638.081L2511.16 620.081V1126.08H2364.16V638.081Z" fill="white"/>
<path fill-rule="evenodd" clip-rule="evenodd" d="M5175.16 135.581V21.0811H5551.51C5600.77 21.0811 5643.84 35.6046 5690.16 63.0811L5175.16 135.581Z" fill="white"/>
<path fill-rule="evenodd" clip-rule="evenodd" d="M517.161 861.081L664.161 843.581L747.757 1127.17C747.757 1127.17 644.661 1127.51 624.329 1126.69C615.641 1126.35 607.489 1123.07 601.842 1119.86C598.728 1118.1 595.246 1115.73 592.042 1112.64C589.163 1109.87 584.601 1104.7 582.405 1097.07L582.405 1097.07L517.161 861.081Z" fill="white"/>
<path fill-rule="evenodd" clip-rule="evenodd" d="M4253.16 265.581L4106.16 286.581V12.0811H4253.16V265.581Z" fill="white"/>
<path fill-rule="evenodd" clip-rule="evenodd" d="M0 1127.22L62.1614 916.081L221.161 897.081L165.207 1097.09L165.17 1097.22L165.132 1097.35C162.874 1104.89 158.291 1109.97 155.544 1112.6C152.421 1115.6 149.023 1117.94 145.955 1119.71C140.444 1122.88 132.208 1126.35 123.3 1126.69C102.538 1127.52 0 1127.22 0 1127.22Z" fill="white"/>
<path fill-rule="evenodd" clip-rule="evenodd" d="M4606.16 11.0811H4753.66L4752.66 195.081L4606.16 216.081V11.0811Z" fill="white"/>
<path fill-rule="evenodd" clip-rule="evenodd" d="M4891.16 11.0811H5037.16V155.081L4891.16 175.581V11.0811Z" fill="white"/>
<path fill-rule="evenodd" clip-rule="evenodd" d="M7393.85 1127.12L7104.02 668.12C7161.09 656.203 7209.93 633.826 7248.65 600.531C7296.74 559.174 7327.27 502.629 7339.45 433.569L7339.45 433.552C7345.62 398.457 7344.76 361.066 7343.99 327.121C7343.74 316.273 7343.5 305.776 7343.5 295.819C7343.52 258.375 7336.17 221.294 7321.88 186.694C7307.6 152.094 7286.64 120.652 7260.22 94.1688C7233.79 67.6853 7202.41 46.6795 7167.88 32.3557C7133.35 18.0378 7096.35 10.678 7058.98 10.6984C6990.23 10.5161 6921.45 10.5769 6852.73 10.6377C6818.38 10.6681 6784.04 10.6984 6749.73 10.6984C6742.86 10.6984 6735.25 11.1526 6728.77 11.539L6695.34 13.1244V1125.62H6843.23V672.899C6844.92 672.917 6846.6 672.936 6848.29 672.955C6872.9 673.234 6897.11 673.508 6920.73 672.266L6920.91 672.256L6921.09 672.244C6926.66 671.876 6928.3 672.896 6928.77 673.192L6928.79 673.206C6929.91 673.897 6932.26 675.866 6936.37 682.412L6936.38 682.422C7022.96 820.034 7109.95 957.417 7197.35 1094.57C7200.52 1099.55 7205.15 1105.96 7210.76 1111.55C7215.17 1115.94 7225.35 1125.2 7239.65 1126.15L7239.68 1126.16L7239.7 1126.16C7264.45 1127.75 7289.68 1127.53 7315.84 1127.29L7393.85 1127.12ZM7191.71 405.034C7183.47 472.871 7137.66 515.081 7059.16 523.081C6980.66 531.081 6894.13 527.81 6894.13 527.81C6877.85 527.655 6861.42 527.499 6844.78 527.409L6844.82 156.326C6867.6 156.611 6890.05 156.563 6912.26 156.516L7080.99 161.872C7143.91 168.197 7192.1 226.726 7193.01 295.317C7193.13 304.846 7193.36 314.095 7193.58 323.13L7193.58 323.133C7194.29 351.886 7194.95 378.47 7191.71 405.02L7191.71 405.034Z" fill="white"/>
</svg>
