<svg width="820" height="126" viewBox="0 0 820 126" fill="none" xmlns="http://www.w3.org/2000/svg">
<path d="M812.161 32.7388C812.163 28.7918 811.389 24.883 809.882 21.236C808.376 17.5889 806.168 14.2749 803.383 11.4837C800.597 8.69249 797.291 6.47876 793.651 4.96928C790.012 3.46013 786.112 2.68458 782.174 2.68703C774.567 2.66686 766.96 2.67359 759.355 2.68031C755.553 2.68367 751.752 2.68704 747.952 2.68704C747.237 2.68704 746.483 2.73217 745.786 2.77387C745.464 2.79318 745.153 2.81175 744.865 2.82475L743.433 2.88937V4.32323V121.569V123.069H744.933H755.299H756.799L810.661 32.738M812.161 32.7388L810.661 32.738M812.161 32.7388C812.161 32.7386 812.161 32.7383 812.161 32.738H810.661M812.161 32.7388C812.161 33.9142 812.188 35.1246 812.216 36.3559C812.301 40.0814 812.39 43.9992 811.735 47.7221L811.735 47.7231C810.44 55.0678 807.214 60.9993 802.186 65.3231C797.663 69.2131 791.768 71.7278 784.709 72.868M810.661 32.738C810.661 33.99 810.689 35.2495 810.718 36.5105C810.801 40.1982 810.884 43.899 810.258 47.4625C807.859 61.0617 798.643 69.2929 783.836 71.4853L784.709 72.868M784.709 72.868L815.059 120.935L816.512 123.235H813.791C812.679 123.235 811.596 123.245 810.536 123.254C807.661 123.28 804.95 123.304 802.271 123.132L802.268 123.131C801.268 123.065 800.481 122.398 800.03 121.949C799.513 121.434 799.067 120.822 798.752 120.327M784.709 72.868C784.173 72.9545 783.632 73.033 783.083 73.1036L798.752 120.327M813.791 121.735L812.845 120.237C813.156 120.236 813.471 120.235 813.791 120.235V121.735ZM813.791 121.735C813.19 121.735 812.6 121.738 812.021 121.742L812.522 122.536L813.791 121.735ZM798.752 120.327C798.752 120.327 798.752 120.327 798.752 120.326L800.017 119.521L798.752 120.327ZM756.971 59.862C759.299 59.869 761.597 59.8908 763.874 59.9124C770.044 59.971 776.058 60.028 782.082 59.7852L782.082 59.7852C790.665 59.4409 797.35 53.2573 798.352 45.0067L798.352 45.0059C798.725 41.9486 798.648 38.8584 798.568 35.6501C798.544 34.667 798.519 33.6729 798.507 32.6653M756.971 59.862L798.507 32.6653M756.971 59.862L756.975 15.8564C757.327 15.8209 757.644 15.7964 757.981 15.7959C760.623 15.8344 763.246 15.8289 765.855 15.8234C772.222 15.81 778.503 15.7968 784.76 16.424L756.971 59.862ZM798.507 32.6653C798.399 24.4463 792.61 17.2128 784.76 16.424L798.507 32.6669C798.507 32.6663 798.507 32.6658 798.507 32.6653ZM756.799 72.9543V71.4541C756.306 71.4506 755.806 71.4484 755.299 71.4484V72.9484C755.803 72.9484 756.303 72.9507 756.799 72.9543Z" fill="white" stroke="white" stroke-width="3"/>
<path d="M696.602 3.06785L696.883 4.02095C708.382 43.0946 719.836 82.0269 731.395 121.322L731.961 123.246H729.956C729.039 123.246 728.134 123.258 727.239 123.27C724.876 123.302 722.589 123.333 720.356 123.134L720.351 123.133C719.825 123.084 719.372 122.866 719.038 122.655C718.69 122.434 718.372 122.158 718.101 121.873C717.58 121.326 717.076 120.586 716.853 119.832L696.602 3.06785ZM696.602 3.06785L695.615 2.95427M696.602 3.06785L695.615 2.95427M695.615 2.95427L695.53 2.94451C694.162 2.78697 693.035 2.65727 692.143 2.6331C691.246 2.60877 690.333 2.67676 689.531 3.11467C688.678 3.58085 688.195 4.32526 687.853 5.09799C687.534 5.81907 687.259 6.75401 686.947 7.81695L686.924 7.89573L686.924 7.89682C676.215 44.4543 665.511 81.0169 654.813 117.584L695.615 2.95427ZM678.922 82.4535C683.494 66.427 688.03 50.5296 692.564 34.6489L706.242 82.4535H678.922Z" fill="white" stroke="white" stroke-width="3"/>
<path d="M596.482 110.157C594.589 110.18 592.706 110.173 590.724 110.165C590.17 110.163 589.607 110.161 589.034 110.159V30.4026V28.7231L587.365 28.9121C586.43 29.0182 585.582 29.137 584.788 29.2483C583.2 29.4709 581.825 29.6636 580.386 29.6643C578.897 29.649 577.454 29.9051 576.49 31.0198C575.584 32.0677 575.436 33.5178 575.436 34.8921L575.436 34.8975C575.516 57.0147 575.51 79.1346 575.504 101.256C575.503 106.991 575.501 112.726 575.501 118.462C575.501 119.172 575.547 119.916 575.595 120.678C575.618 121.051 575.641 121.428 575.659 121.808L575.728 123.236H577.157H580.147C584.015 123.236 587.884 123.24 591.755 123.245C599.5 123.253 607.25 123.262 614.996 123.236C631.317 123.182 644.884 109.786 644.974 93.3946L644.974 93.3928C645.062 73.0727 645.051 52.7526 644.944 32.4326C644.936 30.8808 644.721 29.3642 644.465 27.8979C644.369 27.35 644.27 26.8208 644.172 26.2975C644 25.376 643.831 24.4731 643.69 23.5194L643.476 22.0712L642.023 22.2503L631.258 23.5769L629.682 23.7713L629.966 25.3343C630.136 26.2676 630.351 27.2042 630.552 28.0746C630.653 28.5152 630.75 28.9387 630.836 29.3363C631.103 30.5744 631.285 31.6795 631.285 32.7482L631.286 32.7561C631.391 52.8636 631.482 72.9599 631.286 93.0539L631.286 93.0542C631.202 101.838 625.338 108.603 616.676 109.664L616.673 109.664C612.052 110.237 607.411 110.199 602.659 110.16C600.623 110.143 598.566 110.126 596.482 110.157ZM596.482 110.157C596.481 110.157 596.48 110.157 596.48 110.157L596.502 111.657L596.484 110.157C596.483 110.157 596.482 110.157 596.482 110.157ZM587.534 30.4026V31.9125C587.591 31.9059 587.647 31.8994 587.703 31.8931L587.534 30.4026ZM587.534 30.4026H586.034V30.5913C586.522 30.5252 587.021 30.4607 587.534 30.4026ZM631.442 25.0657L632.933 24.8819C632.928 24.8537 632.923 24.8254 632.918 24.797L631.442 25.0657ZM631.442 25.0657L631.625 26.5544L631.742 26.5401C631.635 26.0575 631.533 25.5666 631.442 25.0657ZM587.534 110.157V111.657V110.157Z" fill="white" stroke="white" stroke-width="3"/>
<path d="M513.378 37.8526L512.067 38.0156L512.063 39.3372L512.053 43.1558V43.1597C512.053 48.8533 512.06 54.5456 512.066 60.237C512.08 71.6166 512.093 82.9928 512.053 94.3697L512.053 94.3774L512.053 94.3851C512.08 98.364 510.68 102.22 508.111 105.251C505.541 108.282 501.971 110.287 498.052 110.901L498.044 110.903L498.035 110.904C495.154 111.39 492.162 111.389 489.056 111.388C488.905 111.388 488.754 111.388 488.602 111.388C483.071 111.388 478.543 109.523 475.401 106.384C472.259 103.246 470.396 98.7262 470.396 93.2148V93.1276V93.0405V92.9533V92.8662V92.779V92.6919V92.6047V92.5176V92.4304V92.3433V92.2561V92.1689V92.0818V91.9946V91.9075V91.8203V91.7332V91.646V91.5589V91.4717V91.3846V91.2974V91.2103V91.1231V91.036V90.9488V90.8617V90.7745V90.6873V90.6002V90.513V90.4259V90.3387V90.2516V90.1644V90.0773V89.9901V89.903V89.8158V89.7287V89.6415V89.5544V89.4672V89.3801V89.2929V89.2057V89.1186V89.0314V88.9443V88.8571V88.77V88.6828V88.5957V88.5085V88.4214V88.3342V88.2471V88.1599V88.0728V87.9856V87.8985V87.8113V87.7241V87.637V87.5498V87.4627V87.3755V87.2884V87.2012V87.1141V87.0269V86.9398V86.8526V86.7655V86.6783V86.5912V86.504V86.4169V86.3297V86.2425V86.1554V86.0682V85.9811V85.8939V85.8068V85.7196V85.6325V85.5453V85.4582V85.371V85.2839V85.1967V85.1096V85.0224V84.9353V84.8481V84.7609V84.6738V84.5866V84.4995V84.4123V84.3252V84.238V84.1509V84.0637V83.9766V83.8894V83.8023V83.7151V83.628V83.5408V83.4537V83.3665V83.2793V83.1922V83.105V83.0179V82.9307V82.8436V82.7564V82.6693V82.5821V82.495V82.4078V82.3207V82.2335V82.1464V82.0592V81.9721V81.8849V81.7977V81.7106V81.6234V81.5363V81.4491V81.362V81.2748V81.1877V81.1005V81.0134V80.9262V80.8391V80.7519V80.6648V80.5776V80.4905V80.4033V80.3161V80.229V80.1418V80.0547V79.9675V79.8804V79.7932V79.7061V79.6189V79.5318V79.4446V79.3575V79.2703V79.1832V79.096V79.0089V78.9217V78.8345V78.7474V78.6602V78.5731V78.4859V78.3988V78.3116V78.2245V78.1373V78.0502V77.963V77.8759V77.7887V77.7016V77.6144V77.5273V77.4401V77.3529V77.2658V77.1786V77.0915V77.0043V76.9172V76.83V76.7429V76.6557V76.5686V76.4814V76.3943V76.3071V76.22V76.1328V76.0457V75.9585V75.8713V75.7842V75.697V75.6099V75.5227V75.4356V75.3484V75.2613V75.1741V75.087V74.9998V74.9127V74.8255V74.7384V74.6512V74.5641V74.4769V74.3897V74.3026V74.2154V74.1283V74.0411V73.954V73.8668V73.7797V73.6925V73.6054V73.5182V73.4311V73.3439V73.2568V73.1696V73.0825V72.9953V72.9081V72.821V72.7338V72.6467V72.5595V72.4724V72.3852V72.2981V72.2109V72.1238V72.0366V71.9495V71.8623V71.7752V71.688V71.6009V71.5137V71.4265V71.3394V71.2522V71.1651V71.0779V70.9908V70.9036V70.8165V70.7293V70.6422V70.555V70.4679V70.3807V70.2936V70.2064V70.1193V70.0321V69.9449V69.8578V69.7706V69.6835V69.5963V69.5092V69.422V69.3349V69.2477V69.1606V69.0734V68.9863V68.8991V68.812V68.7248V68.6377V68.5505V68.4633V68.3762V68.289V68.2019V68.1147V68.0276V67.9404V67.8533V67.7661V67.679V67.5918V67.5047V67.4175V67.3304V67.2432V67.1561V67.0689V66.9817V66.8946V66.8074V66.7203V66.6331V66.546V66.4588V66.3717V66.2845V66.1974V66.1102V66.0231V65.9359V65.8488V65.7616V65.6745V65.5873V65.5001V65.413V65.3258V65.2387V65.1515V65.0644V64.9772V64.8901V64.8029V64.7158V64.6286V64.5415V64.4543V64.3672V64.28V64.1929V64.1057V64.0185V63.9314V63.8442V63.7571V63.6699V63.5828V63.4956V63.4085V63.3213V63.2342V63.147V63.0599V62.9727V62.8856V62.7984V62.7113V62.6241V62.5369V62.4498V62.3626V62.2755V62.1883V62.1012V62.014V61.9269V61.8397V61.7526V61.6654V61.5783V61.4911V61.404V61.3168V61.2297V61.1425V61.0553V60.9682V60.881V60.7939V60.7067V60.6196V60.5324V60.4453V60.3581V60.271V60.1838V60.0967V60.0095V59.9224V59.8352V59.7481V59.6609V59.5737V59.4866V59.3994V59.3123V59.2251V59.138V59.0508V58.9637V58.8765V58.7894V58.7022V58.6151V58.5279V58.4408V58.3536V58.2665V58.1793V58.0921V58.005V57.9178V57.8307V57.7435V57.6564V57.5692V57.4821V57.3949V57.3078V57.2206V57.1335V57.0463V56.9592V56.872V56.7849V56.6977V56.6105V56.5234V56.4362V56.3491V56.2619V56.1748V56.0876V56.0005V55.9133V55.8262V55.739V55.6519V55.5647V55.4776V55.3904V55.3033V55.2161V55.129V55.0418V54.9546V54.8675V54.7803V54.6932V54.606V54.5189V54.4317V54.3446V54.2574V54.1703V54.0831V53.996V53.9088V53.8217V53.7345V53.6474V53.5602V53.473V53.3859V53.2987V53.2116V53.1244V53.0373V52.9501V52.863V52.7758V52.6887V52.6015V52.5144V52.4272V52.3401V52.2529V52.1658V52.0786V51.9914V51.9043V51.8171V51.73V51.6428V51.5557V51.4685V51.3814V51.2942V51.2071V51.1199V51.0328V50.9456V50.8585V50.7713V50.6842V50.597V50.5098V50.4227V50.3355V50.2484V50.1612V50.0741V49.9869V49.8998V49.8126V49.7255V49.6383V49.5512V49.464V49.3769V49.2897V49.2026V49.1154V49.0282V48.9411V48.8539V48.7668V48.6796V48.5925V44.8193V43.1446L468.731 43.3284L458.083 44.5037L456.747 44.6511V45.9946V49.3844V49.4722V49.56V49.6477V49.7355V49.8233V49.911V49.9988V50.0866V50.1743V50.2621V50.3498V50.4376V50.5254V50.6131V50.7009V50.7887V50.8764V50.9642V51.052V51.1397V51.2275V51.3152V51.403V51.4908V51.5785V51.6663V51.7541V51.8418V51.9296V52.0173V52.1051V52.1929V52.2806V52.3684V52.4562V52.5439V52.6317V52.7194V52.8072V52.895V52.9827V53.0705V53.1583V53.246V53.3338V53.4215V53.5093V53.5971V53.6848V53.7726V53.8603V53.9481V54.0359V54.1236V54.2114V54.2992V54.3869V54.4747V54.5624V54.6502V54.738V54.8257V54.9135V55.0013V55.089V55.1768V55.2645V55.3523V55.4401V55.5278V55.6156V55.7033V55.7911V55.8789V55.9666V56.0544V56.1421V56.2299V56.3177V56.4054V56.4932V56.5809V56.6687V56.7565V56.8442V56.932V57.0198V57.1075V57.1953V57.283V57.3708V57.4586V57.5463V57.6341V57.7218V57.8096V57.8974V57.9851V58.0729V58.1606V58.2484V58.3362V58.4239V58.5117V58.5994V58.6872V58.775V58.8627V58.9505V59.0382V59.126V59.2137V59.3015V59.3893V59.477V59.5648V59.6525V59.7403V59.8281V59.9158V60.0036V60.0913V60.1791V60.2669V60.3546V60.4424V60.5301V60.6179V60.7057V60.7934V60.8812V60.9689V61.0567V61.1444V61.2322V61.32V61.4077V61.4955V61.5832V61.671V61.7588V61.8465V61.9343V62.022V62.1098V62.1975V62.2853V62.3731V62.4608V62.5486V62.6363V62.7241V62.8119V62.8996V62.9874V63.0751V63.1629V63.2506V63.3384V63.4262V63.5139V63.6017V63.6894V63.7772V63.8649V63.9527V64.0405V64.1282V64.216V64.3037V64.3915V64.4792V64.567V64.6548V64.7425V64.8303V64.918V65.0058V65.0935V65.1813V65.2691V65.3568V65.4446V65.5323V65.6201V65.7078V65.7956V65.8834V65.9711V66.0589V66.1466V66.2344V66.3221V66.4099V66.4977V66.5854V66.6732V66.7609V66.8487V66.9364V67.0242V67.1119V67.1997V67.2875V67.3752V67.463V67.5507V67.6385V67.7262V67.814V67.9017V67.9895V68.0773V68.165V68.2528V68.3405V68.4283V68.516V68.6038V68.6915V68.7793V68.8671V68.9548V69.0426V69.1303V69.2181V69.3058V69.3936V69.4813V69.5691V69.6569V69.7446V69.8324V69.9201V70.0079V70.0956V70.1834V70.2711V70.3589V70.4466V70.5344V70.6222V70.7099V70.7977V70.8854V70.9732V71.0609V71.1487V71.2364V71.3242V71.4119V71.4997V71.5875V71.6752V71.763V71.8507V71.9385V72.0262V72.114V72.2017V72.2895V72.3772V72.465V72.5527V72.6405V72.7283V72.816V72.9038V72.9915V73.0793V73.167V73.2548V73.3425V73.4303V73.518V73.6058V73.6935V73.7813V73.869V73.9568V74.0446V74.1323V74.2201V74.3078V74.3956V74.4833V74.5711V74.6588V74.7466V74.8343V74.9221V75.0098V75.0976V75.1853V75.2731V75.3608V75.4486V75.5363V75.6241V75.7119V75.7996V75.8874V75.9751V76.0629V76.1506V76.2384V76.3261V76.4139V76.5016V76.5894V76.6771V76.7649V76.8526V76.9404V77.0281V77.1159V77.2036V77.2914V77.3791V77.4669V77.5546V77.6424V77.7301V77.8179V77.9056V77.9934V78.0812V78.1689V78.2566V78.3444V78.4322V78.5199V78.6077V78.6954V78.7832V78.8709V78.9587V79.0464V79.1342V79.2219V79.3097V79.3974V79.4852V79.5729V79.6607V79.7484V79.8362V79.9239V80.0117V80.0994V80.1872V80.2749V80.3627V80.4504V80.5382V80.6259V80.7137V80.8014V80.8892V80.9769V81.0647V81.1524V81.2402V81.3279V81.4157V81.5034V81.5912V81.6789V81.7667V81.8544V81.9422V82.0299V82.1177V82.2054V82.2932V82.3809V82.4687V82.5564V82.6442V82.7319V82.8197V82.9074V82.9952V83.0829V83.1707V83.2584V83.3461V83.4339V83.5216V83.6094V83.6971V83.7849V83.8726V83.9604V84.0481V84.1359V84.2236V84.3114V84.3991V84.4869V84.5746V84.6624V84.7501V84.8379V84.9256V85.0134V85.1011V85.1889V85.2766V85.3644V85.4521V85.5399V85.6276V85.7154V85.8031V85.8909V85.9786V86.0663V86.1541V86.2418V86.3296V86.4173V86.5051V86.5928V86.6806V86.7683V86.8561V86.9438V87.0316V87.1193V87.2071V87.2948V87.3826V87.4703V87.5581V87.6458V87.7335V87.8213V87.909V87.9968V88.0845V88.1723V88.26V88.3478V88.4355V88.5233V88.611V88.6988V88.7865V88.8743V88.962V89.0497V89.1375V89.2252V89.313V89.4007V89.4885V89.5762V89.664V89.7517V89.8395V89.9272V90.015V90.1027V90.1904V90.2782V90.3659V90.4537V90.5414V90.6292V90.7169V90.8047V90.8924V90.9802V91.0679V91.1557V91.2434V91.3311V91.4189V91.5066V91.5944V91.6821V91.7699V91.8576V91.9454V92.0331V92.1208V92.2086V92.2963V92.3841V92.4718V92.5596V92.6473V92.7351V92.8228V92.9105V92.9983V93.086V93.1738V93.2615V93.3493V93.437V93.5248V93.6125V93.7003V93.788V93.8757V93.9635V94.0512V94.139V94.2267L456.747 94.3145L456.747 94.3156C456.758 107.87 465.304 119.81 478.572 123.164C483.535 124.421 488.858 124.429 493.858 124.436C494.481 124.437 495.099 124.438 495.71 124.441L495.711 124.441C499.651 124.461 503.557 123.698 507.202 122.197C510.846 120.695 514.158 118.485 516.946 115.694C519.733 112.904 521.942 109.587 523.444 105.936C524.945 102.287 525.711 98.3748 525.697 94.4269C525.697 94.4262 525.697 94.4256 525.697 94.4249L525.697 94.3267V94.223V94.1193V94.0156V93.9118V93.8081V93.7044V93.6007V93.497V93.3932V93.2895V93.1858V93.0821V92.9783V92.8746V92.7709V92.6672V92.5634V92.4597V92.356V92.2523V92.1485V92.0448V91.9411V91.8374V91.7336V91.6299V91.5262V91.4225V91.3188V91.215V91.1113V91.0076V90.9039V90.8001V90.6964V90.5927V90.489V90.3852V90.2815V90.1778V90.0741V89.9704V89.8666V89.7629V89.6592V89.5555V89.4517V89.348V89.2443V89.1406V89.0369V88.9331V88.8294V88.7257V88.622V88.5182V88.4145V88.3108V88.2071V88.1034V87.9996V87.8959V87.7922V87.6885V87.5847V87.481V87.3773V87.2736V87.1699V87.0661V86.9624V86.8587V86.755V86.6512V86.5475V86.4438V86.3401V86.2364V86.1326V86.0289V85.9252V85.8215V85.7178V85.614V85.5103V85.4066V85.3029V85.1992V85.0954V84.9917V84.888V84.7843V84.6805V84.5768V84.4731V84.3694V84.2657V84.1619V84.0582V83.9545V83.8508V83.7471V83.6433V83.5396V83.4359V83.3322V83.2285V83.1247V83.021V82.9173V82.8136V82.7099V82.6061V82.5024V82.3987V82.295V82.1913V82.0875V81.9838V81.8801V81.7764V81.6727V81.5689V81.4652V81.3615V81.2578V81.1541V81.0503V80.9466V80.8429V80.7392V80.6355V80.5317V80.428V80.3243V80.2206V80.1169V80.0131V79.9094V79.8057V79.702V79.5983V79.4946V79.3908V79.2871V79.1834V79.0797V78.976V78.8722V78.7685V78.6648V78.5611V78.4574V78.3536V78.2499V78.1462V78.0425V77.9388V77.8351V77.7313V77.6276V77.5239V77.4202V77.3165V77.2127V77.109V77.0053V76.9016V76.7979V76.6942V76.5904V76.4867V76.383V76.2793V76.1756V76.0719V75.9681V75.8644V75.7607V75.657V75.5533V75.4496V75.3458V75.2421V75.1384V75.0347V74.931V74.8272V74.7235V74.6198V74.5161V74.4124V74.3087V74.2049V74.1012V73.9975V73.8938V73.7901V73.6864V73.5826V73.4789V73.3752V73.2715V73.1678V73.0641V72.9603V72.8566V72.7529V72.6492V72.5455V72.4418V72.338V72.2343V72.1306V72.0269V71.9232V71.8195V71.7158V71.612V71.5083V71.4046V71.3009V71.1972V71.0935V70.9897V70.886V70.7823V70.6786V70.5749V70.4712V70.3674V70.2637V70.16V70.0563V69.9526V69.8489V69.7452V69.6414V69.5377V69.434V69.3303V69.2266V69.1229V69.0191V68.9154V68.8117V68.708V68.6043V68.5006V68.3969V68.2931V68.1894V68.0857V67.982V67.8783V67.7746V67.6709V67.5671V67.4634V67.3597V67.256V67.1523V67.0486V66.9449V66.8411V66.7374V66.6337V66.53V66.4263V66.3226V66.2189V66.1151V66.0114V65.9077V65.804V65.7003V65.5966V65.4929V65.3891V65.2854V65.1817V65.078V64.9743V64.8706V64.7669V64.6632V64.5594V64.4557V64.352V64.2483V64.1446V64.0409V63.9372V63.8334V63.7297V63.626V63.5223V63.4186V63.3149V63.2112V63.1075V63.0037V62.9V62.7963V62.6926V62.5889V62.4852V62.3815V62.2778V62.174V62.0703V61.9666V61.8629V61.7592V61.6555V61.5518V61.4481V61.3443V61.2406V61.1369V61.0332V60.9295V60.8258V60.7221V60.6184V60.5147V60.4109V60.3072V60.2035V60.0998V59.9961V59.8924V59.7887V59.685V59.5812V59.4775V59.3738V59.2701V59.1664V59.0627V58.959V58.8553V58.7516V58.6478V58.5441V58.4404V58.3367V58.233V58.1293V58.0256V57.9219V57.8182V57.7144V57.6107V57.507V57.4033V57.2996V57.1959V57.0922V56.9885V56.8848V56.781V56.6773V56.5736V56.4699V56.3662V56.2625V56.1588V56.0551V55.9514V55.8477V55.7439V55.6402V55.5365V55.4328V55.3291V55.2254V55.1217V55.018V54.9143V54.8106V54.7069V54.6031V54.4994V54.3957V54.292V54.1883V54.0846V53.9809V53.8772V53.7735V53.6698V53.566V53.4623V53.3586V53.2549V53.1512V53.0475V52.9438V52.8401V52.7364V52.6327V52.529V52.4252V52.3215V52.2178V52.1141V52.0104V51.9067V51.803V51.6993V51.5956V51.4919V51.3882V51.2845V51.1807V51.077V50.9733V50.8696V50.7659V50.6622V50.5585V50.4548V50.3511V50.2474V50.1437V50.04V49.9362V49.8325V49.7288V49.6251V49.5214V49.4177V49.314V49.2103V49.1066V49.0029V48.8992V48.7955V48.6918V48.588V48.4843V48.3806V48.2769V48.1732V48.0695V47.9658V47.8621V47.7584V47.6547V47.551V47.4473V47.3436V47.2399V47.1361V47.0324V46.9287V46.825V46.7213V46.6176V46.5139V46.4102V46.3065V46.2028V46.0991V45.9954V45.8917V45.788V45.6843V45.5805V45.4768V45.3731V45.2694V45.1657V45.062V44.9583V44.8546V44.7509V44.6472V44.5435V44.4398V44.3361V44.2324V44.1287V44.025V43.9213V43.8175V43.7138V43.6101V43.5064V43.4027V43.299V43.1953V43.0916V42.9879V42.8842V42.7805V42.6768V42.5731V42.4694V42.3657V42.262V42.1583V42.0546V41.9509V41.8471V41.7434V41.6397V41.536V41.4323V41.3286V38.0195V36.3216L524.012 36.531L513.378 37.8526Z" fill="white" stroke="white" stroke-width="3"/>
<path d="M46.6727 4.02078L46.3921 3.0675L45.4048 2.95418L45.3348 2.94614C43.9586 2.78815 42.8152 2.65688 41.9061 2.6437C40.9828 2.63032 40.0452 2.72752 39.224 3.23787C38.3842 3.75983 37.9098 4.56001 37.5619 5.38733C37.2315 6.17314 36.9324 7.19601 36.5819 8.39487L36.5474 8.51283L36.5473 8.51349C28.3283 36.6654 20.1094 64.8191 11.8905 92.9744C11.7164 93.5521 11.6022 94.2173 11.4931 94.8529C11.4468 95.1226 11.4015 95.3871 11.3528 95.6372L10.9509 97.7029L13.0347 97.4089L69.9913 89.3733L71.7111 89.1307L71.2208 87.4645C67.5606 75.027 63.9269 62.6722 60.3042 50.3544C55.7535 34.8817 51.22 19.4673 46.6727 4.02078ZM33.718 64.8872C36.6033 54.7858 39.4779 44.7223 42.3527 34.6613L56.0213 82.408H28.7132C30.3865 76.5507 32.054 70.7126 33.718 64.8872Z" fill="white" stroke="white" stroke-width="3"/>
<path d="M440.141 60.7778C440.141 60.3794 439.999 60.0753 439.899 59.903C439.797 59.7288 439.684 59.5987 439.619 59.5282C439.565 59.4692 439.502 59.4063 439.476 59.381C439.474 59.3783 439.471 59.3759 439.47 59.3741L439.049 58.8256H438.309H409.514H408.014V60.3256V70.2882V71.7882H409.514H426.599C426.601 74.0396 426.606 76.2698 426.612 78.4852C426.625 83.8308 426.638 89.0901 426.598 94.3535V94.3539C426.542 101.964 422.088 108.323 414.851 110.155C410.153 111.288 405.299 111.629 400.489 111.163L400.485 111.162C395.634 110.706 391.779 108.697 389.129 105.663C386.473 102.623 384.948 98.4605 384.936 93.5712V93.5048V93.4367V93.3686V93.3005V93.2324V93.1643V93.0962V93.0281V92.96V92.8919V92.8238V92.7557V92.6876V92.6195V92.5514V92.4833V92.4152V92.3471V92.279V92.2108V92.1427V92.0746V92.0065V91.9384V91.8703V91.8022V91.7341V91.666V91.5978V91.5297V91.4616V91.3935V91.3254V91.2573V91.1891V91.121V91.0529V90.9848V90.9167V90.8486V90.7804V90.7123V90.6442V90.5761V90.5079V90.4398V90.3717V90.3036V90.2355V90.1673V90.0992V90.0311V89.963V89.8948V89.8267V89.7586V89.6905V89.6223V89.5542V89.4861V89.418V89.3498V89.2817V89.2136V89.1454V89.0773V89.0092V88.941V88.8729V88.8048V88.7367V88.6685V88.6004V88.5323V88.4641V88.396V88.3279V88.2597V88.1916V88.1235V88.0553V87.9872V87.919V87.8509V87.7828V87.7146V87.6465V87.5784V87.5102V87.4421V87.374V87.3058V87.2377V87.1695V87.1014V87.0333V86.9651V86.897V86.8288V86.7607V86.6926V86.6244V86.5563V86.4881V86.42V86.3518V86.2837V86.2156V86.1474V86.0793V86.0111V85.943V85.8748V85.8067V85.7386V85.6704V85.6023V85.5341V85.466V85.3978V85.3297V85.2615V85.1934V85.1253V85.0571V84.989V84.9208V84.8527V84.7845V84.7164V84.6482V84.5801V84.5119V84.4438V84.3756V84.3075V84.2393V84.1712V84.103V84.0349V83.9667V83.8986V83.8305V83.7623V83.6942V83.626V83.5579V83.4897V83.4216V83.3534V83.2853V83.2171V83.149V83.0808V83.0127V82.9445V82.8764V82.8082V82.7401V82.6719V82.6038V82.5356V82.4674V82.3993V82.3311V82.263V82.1948V82.1267V82.0585V81.9904V81.9222V81.8541V81.7859V81.7178V81.6496V81.5815V81.5133V81.4452V81.377V81.3089V81.2407V81.1726V81.1044V81.0363V80.9681V80.9V80.8318V80.7637V80.6955V80.6274V80.5592V80.4911V80.4229V80.3548V80.2866V80.2185V80.1503V80.0822V80.014V79.9459V79.8777V79.8095V79.7414V79.6732V79.6051V79.5369V79.4688V79.4006V79.3325V79.2643V79.1962V79.128V79.0599V78.9917V78.9236V78.8554V78.7873V78.7191V78.651V78.5828V78.5147V78.4465V78.3784V78.3102V78.2421V78.174V78.1058V78.0377V77.9695V77.9014V77.8332V77.7651V77.6969V77.6288V77.5606V77.4925V77.4243V77.3562V77.288V77.2199V77.1517V77.0836V77.0154V76.9473V76.8792V76.811V76.7429V76.6747V76.6066V76.5384V76.4703V76.4021V76.334V76.2659V76.1977V76.1296V76.0614V75.9933V75.9251V75.857V75.7889V75.7207V75.6526V75.5844V75.5163V75.4482V75.38V75.3119V75.2437V75.1756V75.1075V75.0393V74.9712V74.903V74.8349V74.7668V74.6986V74.6305V74.5623V74.4942V74.4261V74.3579V74.2898V74.2217V74.1535V74.0854V74.0173V73.9491V73.881V73.8129V73.7447V73.6766V73.6085V73.5403V73.4722V73.4041V73.3359V73.2678V73.1997V73.1315V73.0634V72.9953V72.9272V72.859V72.7909V72.7228V72.6546V72.5865V72.5184V72.4503V72.3821V72.314V72.2459V72.1778V72.1096V72.0415V71.9734V71.9053V71.8371V71.769V71.7009V71.6328V71.5647V71.4965V71.4284V71.3603V71.2922V71.2241V71.1559V71.0878V71.0197V70.9516V70.8835V70.8154V70.7473V70.6791V70.611V70.5429V70.4748V70.4067V70.3386V70.2705V70.2023V70.1342V70.0661V69.998V69.9299V69.8618V69.7937V69.7256V69.6575V69.5894V69.5213V69.4532V69.3851V69.3169V69.2488V69.1807V69.1126V69.0445V68.9764V68.9083V68.8402V68.7721V68.704V68.6359V68.5678V68.4997V68.4316V68.3635V68.2954V68.2274V68.1593V68.0912V68.0231V67.955V67.8869V67.8188V67.7507V67.6826V67.6145V67.5464V67.4783V67.4103V67.3422V67.2741V67.206V67.1379V67.0698V67.0017V66.9337V66.8656V66.7975V66.7294V66.6613V66.5933V66.5252V66.4571V66.389V66.3209V66.2529V66.1848V66.1167V66.0486V65.9806V65.9125V65.8444V65.7763V65.7083V65.6402V65.5721V65.5041V65.436V65.3679V65.2999V65.2318V65.1637V65.0957V65.0276V64.9595V64.8915V64.8234V64.7554V64.6873V64.6192V64.5512V64.4831V64.4151V64.347V64.2789V64.2109V64.1428V64.0748V64.0067V63.9387V63.8706V63.8026V63.7345V63.6665V63.5984V63.5304V63.4623V63.3943V63.3263V63.2582V63.1902V63.1221V63.0541V62.986V62.918V62.85V62.7819V62.7139V62.6459V62.5778V62.5098V62.4418V62.3737V62.3057V62.2377V62.1696V62.1016V62.0336V61.9655V61.8975V61.8295V61.7615V61.6934V61.6254V61.5574V61.4894V61.4214V61.3533V61.2853V61.2173V61.1493V61.0813V61.0133V60.9452V60.8772V60.8092V60.7412V60.6732V60.6052V60.5372V60.4692V60.4012V60.3332V60.2652V60.1972V60.1292V60.0612V59.9932V59.9252V59.8572V59.7892V59.7212V59.6532V59.5852V59.5172V59.4492V59.3812V59.3132V59.2452V59.1772V59.1092V59.0413V58.9733V58.9053V58.8373V58.7693V58.7013V55.0593V53.3597L383.249 53.571L372.903 54.8674L372.003 54.9801L438.596 97.2149L440.095 97.2722C440.422 88.6942 440.326 80.0779 440.23 71.5051C440.19 67.9197 440.15 64.3419 440.141 60.7778ZM440.141 60.7778C440.141 60.7784 440.141 60.779 440.141 60.7796H438.641L440.141 60.7759C440.141 60.7765 440.141 60.7771 440.141 60.7778ZM383.436 55.0593V56.5711L383.622 56.5477L383.436 55.0593ZM383.436 55.0593H381.936V55.2473L383.436 55.0593ZM392.87 123.085L393.234 121.63L392.869 123.085C392.869 123.085 392.87 123.085 392.87 123.085Z" fill="white" stroke="white" stroke-width="3"/>
<path d="M176.871 2.73243H178.371C182.492 2.73243 186.609 2.69257 190.722 2.65276C200.102 2.56194 209.456 2.47138 218.772 2.85476C232.963 3.43872 245.161 16.1692 245.944 30.7001L245.944 30.7032C246.294 37.4555 246.224 44.2622 246.153 51.0149C246.122 54.0203 246.091 57.0151 246.097 59.9896V59.9927V63.1353V64.426L244.821 64.6185L234.188 66.2226L232.464 66.4826V64.7394V61.0923C232.464 58.1223 232.468 55.1539 232.472 52.1863C232.48 46.2545 232.487 40.3257 232.464 34.3937L176.871 2.73243ZM176.871 2.73243L176.871 4.23265M176.871 2.73243L176.871 4.23265M176.871 4.23265L176.881 72.6037L176.881 74.337L178.597 74.088L189.019 72.5747L190.303 72.3881M176.871 4.23265L190.303 72.3881M190.303 72.3881V71.0902M190.303 72.3881V71.0902M190.303 71.0902V15.7755V71.0902Z" fill="white" stroke="white" stroke-width="3"/>
<path d="M201.715 110.157C198.915 110.18 196.123 110.173 193.219 110.165C192.202 110.162 191.171 110.16 190.122 110.158V78.7173V77.0407L188.455 77.2266C187.475 77.3359 186.55 77.4492 185.66 77.558C183.689 77.7991 181.893 78.0188 180.063 78.128L180.062 78.128C179.04 78.1895 178.001 78.4756 177.309 79.3646C176.672 80.1817 176.589 81.2013 176.589 82.0062V82.0829V82.1595V82.2362V82.3128V82.3895V82.4661V82.5427V82.6194V82.696V82.7727V82.8493V82.9259V83.0026V83.0792V83.1559V83.2325V83.3092V83.3858V83.4624V83.5391V83.6157V83.6924V83.769V83.8457V83.9223V83.999V84.0756V84.1523V84.2289V84.3056V84.3822V84.4589V84.5355V84.6122V84.6888V84.7655V84.8421V84.9188V84.9955V85.0721V85.1488V85.2254V85.3021V85.3788V85.4554V85.5321V85.6087V85.6854V85.7621V85.8387V85.9154V85.9921V86.0688V86.1454V86.2221V86.2988V86.3755V86.4521V86.5288V86.6055V86.6822V86.7589V86.8355V86.9122V86.9889V87.0656V87.1423V87.219V87.2957V87.3724V87.4491V87.5258V87.6025V87.6792V87.7559V87.8326V87.9093V87.986V88.0627V88.1394V88.2161V88.2928V88.3695V88.4463V88.523V88.5997V88.6764V88.7532V88.8299V88.9066V88.9833V89.0601V89.1368V89.2136V89.2903V89.367V89.4438V89.5205V89.5973V89.674V89.7508V89.8275V89.9043V89.9811V90.0578V90.1346V90.2114V90.2881V90.3649V90.4417V90.5184V90.5952V90.672V90.7488V90.8256V90.9024V90.9792V91.056V91.1327V91.2095V91.2864V91.3632V91.44V91.5168V91.5936V91.6704V91.7472V91.824V91.9009V91.9777V92.0545V92.1314V92.2082V92.285V92.3619V92.4387V92.5156V92.5924V92.6693V92.7461V92.823V92.8999V92.9767V93.0536V93.1305V93.2074V93.2842V93.3611V93.438V93.5149V93.5918V93.6687V93.7456V93.8225V93.8994V93.9763V94.0532V94.1301V94.2071V94.284V94.3609V94.4378V94.5148V94.5917V94.6687V94.7456V94.8226V94.8995V94.9765V95.0534V95.1304V95.2074V95.2843V95.3613V95.4383V95.5153V95.5923V95.6693V95.7463V95.8233V95.9003V95.9773V96.0543V96.1313V96.2083V96.2853V96.3624V96.4394V96.5164V96.5935V96.6705V96.7476V96.8246V96.9017V96.9788V97.0558V97.1329V97.21V97.287V97.3641V97.4412V97.5183V97.5954V97.6725V97.7496V97.8267V97.9039V97.981V98.0581V98.1352V98.2124V98.2895V98.3667V98.4438V98.521V98.5981V98.6753V98.7524V98.8296V98.9068V98.984V99.0612V99.1384V99.2156V99.2928V99.37V99.4472V99.5244V99.6016V99.6789V99.7561V99.8333V99.9106V99.9878V100.065V100.142V100.22V100.297V100.374V100.451V100.529V100.606V100.683V100.761V100.838V100.915V100.993V101.07V101.147V101.225V101.302V101.379V101.457V101.534V101.611V101.689V101.766V101.843V101.921V101.998V102.076V102.153V102.23V102.308V102.385V102.463V102.54V102.618V102.695V102.772V102.85V102.927V103.005V103.082V103.16V103.237V103.315V103.392V103.47V103.547V103.625V103.702V103.78V103.857V103.935V104.013V104.09V104.168V104.245V104.323V104.4V104.478V104.556V104.633V104.711V104.788V104.866V104.944V105.021V105.099V105.177V105.254V105.332V105.41V105.487V105.565V105.643V105.72V105.798V105.876V105.953V106.031V106.109V106.187V106.264V106.342V106.42V106.498V106.575V106.653V106.731V106.809V106.887V106.964V107.042V107.12V107.198V107.276V107.354V107.431V107.509V107.587V107.665V107.743V107.821V107.899V107.977V108.054V108.132V108.21V108.288V108.366V108.444V108.522V108.6V108.678V108.756V108.834V108.912V108.99V109.068V109.146V109.224V109.302V109.38V109.458V109.536V109.614V109.692V109.77V109.849V109.927V110.005V110.083V110.161V110.239V110.317V110.395V110.474V110.552V110.63V110.708V110.786V110.864V110.943V111.021V111.099V111.177V111.256V111.334V111.412V111.49V111.569V111.647V111.725V111.804V111.882V111.96V112.038V112.117V112.195V112.273V112.352V112.43V112.509V112.587V112.665V112.744V112.822V112.901V112.979V113.057V113.136V113.214V113.293V113.371V113.45V113.528V113.607V113.685V113.764V113.842V113.921V113.999V114.078V114.157V114.235V114.314V114.392V114.471V114.55V114.628V114.707V114.785V114.864V114.943V115.021V115.1V115.179V115.258V115.336V115.415V115.494V115.572V115.651V115.73V115.809V115.887V115.966V116.045V116.124V116.203V116.282V116.36V116.439V116.518V116.597V116.676V116.755V116.834V116.912V116.991V117.07V117.149V117.228V117.307V117.386V117.465V117.544V117.623V117.702V117.781V117.86V117.939V118.018V118.097V118.176V118.255V118.335V118.414V118.493V118.572V118.651V118.73V118.809V118.888V118.968V119.047V119.126V119.205V119.284V119.364V119.443V119.522V119.601V119.681V119.76V119.839V119.919V119.998V120.077V120.157V120.236V120.315V120.395V120.474V120.553V120.633V120.712V120.792V120.871V120.951V121.03V121.109V121.189V121.268V121.348V121.427V121.507V121.587V121.666V121.746V123.243L178.087 123.246L181.493 123.251C181.493 123.251 181.493 123.251 181.494 123.251C192.902 123.271 204.31 123.271 215.719 123.251L215.721 123.251C229.47 123.203 241.971 114.541 244.709 100.812C245.649 96.1032 245.982 91.3019 246.153 86.4858C246.218 84.6312 246.26 82.7909 246.302 80.9514C246.369 77.9617 246.437 74.9741 246.608 71.9311L246.709 70.1398L244.928 70.3581L233.776 71.7251L232.458 71.8866V73.2139C232.458 75.4832 232.471 77.6986 232.483 79.8795C232.506 84.1368 232.528 88.2629 232.459 92.4026L232.459 92.4036C232.309 101.684 226.578 108.518 217.489 109.767L217.488 109.768C213.864 110.27 210.218 110.225 206.445 110.178C204.892 110.158 203.318 110.139 201.715 110.157ZM201.715 110.157C201.715 110.157 201.714 110.157 201.714 110.157L201.731 111.657L201.719 110.157C201.717 110.157 201.716 110.157 201.715 110.157ZM188.622 78.7173V80.2267C188.677 80.2205 188.732 80.2143 188.788 80.2081L188.622 78.7173ZM188.622 78.7173H187.122V78.8916C187.612 78.8328 188.112 78.7742 188.622 78.7173ZM245.11 71.8469L245.293 73.3358L245.033 73.3677C245.056 72.8613 245.082 72.3544 245.11 71.8469ZM245.11 71.8469L243.613 71.7627C243.608 71.8526 243.603 71.9425 243.598 72.0323L245.11 71.8469ZM188.622 110.157V111.657V110.157ZM180.152 79.6253L180.152 79.6253L180.152 79.6253Z" fill="white" stroke="white" stroke-width="3"/>
<path d="M319.157 52.9305V54.6773L320.883 54.4133L331.638 52.7688L332.911 52.5741V51.2861V15.7051H359.159H360.659V14.2051V4.45435V2.95435H359.159H292.651H291.151V4.45435V14.306V15.806H292.651H319.157V52.9305Z" fill="white" stroke="white" stroke-width="3"/>
<path d="M439.77 37.2974L438.657 37.4606L428.341 38.9739L426.623 39.2259V37.4898V37.4788V37.4679V37.457V37.4461V37.4351V37.4242V37.4133V37.4024V37.3915V37.3806V37.3697V37.3588V37.3479V37.337V37.3261V37.3153V37.3044V37.2935V37.2826V37.2718V37.2609V37.2501V37.2392V37.2283V37.2175V37.2067V37.1958V37.185V37.1741V37.1633V37.1525V37.1417V37.1308V37.12V37.1092V37.0984V37.0876V37.0768V37.066V37.0552V37.0444V37.0336V37.0228V37.0121V37.0013V36.9905V36.9797V36.969V36.9582V36.9474V36.9367V36.9259V36.9152V36.9044V36.8937V36.8829V36.8722V36.8615V36.8507V36.84V36.8293V36.8185V36.8078V36.7971V36.7864V36.7757V36.765V36.7543V36.7436V36.7329V36.7222V36.7115V36.7008V36.6901V36.6794V36.6688V36.6581V36.6474V36.6367V36.6261V36.6154V36.6048V36.5941V36.5834V36.5728V36.5621V36.5515V36.5409V36.5302V36.5196V36.509V36.4983V36.4877V36.4771V36.4665V36.4558V36.4452V36.4346V36.424V36.4134V36.4028V36.3922V36.3816V36.371V36.3604V36.3498V36.3392V36.3287V36.3181V36.3075V36.2969V36.2864V36.2758V36.2652V36.2547V36.2441V36.2336V36.223V36.2125V36.2019V36.1914V36.1808V36.1703V36.1597V36.1492V36.1387V36.1281V36.1176V36.1071V36.0966V36.0861V36.0756V36.065V36.0545V36.044V36.0335V36.023V36.0125V36.002V35.9915V35.981V35.9706V35.9601V35.9496V35.9391V35.9286V35.9182V35.9077V35.8972V35.8867V35.8763V35.8658V35.8554V35.8449V35.8344V35.824V35.8135V35.8031V35.7927V35.7822V35.7718V35.7613V35.7509V35.7405V35.73V35.7196V35.7092V35.6988V35.6884V35.6779V35.6675V35.6571V35.6467V35.6363V35.6259V35.6155V35.6051V35.5947V35.5843V35.5739V35.5635V35.5531V35.5427V35.5324V35.522V35.5116V35.5012V35.4908V35.4805V35.4701V35.4597V35.4494V35.439V35.4287V35.4183V35.4079V35.3976V35.3872V35.3769V35.3665V35.3562V35.3458V35.3355V35.3252V35.3148V35.3045V35.2942V35.2838V35.2735V35.2632V35.2529V35.2425V35.2322V35.2219V35.2116V35.2013V35.191V35.1807V35.1704V35.16V35.1497V35.1394V35.1292V35.1189V35.1086V35.0983V35.088V35.0777V35.0674V35.0571V35.0468V35.0366V35.0263V35.016V35.0057V34.9955V34.9852V34.9749V34.9647V34.9544V34.9441V34.9339V34.9236V34.9133V34.9031V34.8928V34.8826V34.8723V34.8621V34.8518V34.8416V34.8314V34.8211V34.8109V34.8006V34.7904V34.7802V34.7699V34.7597V34.7495V34.7393V34.729V34.7188V34.7086V34.6984V34.6882V34.6779V34.6677V34.6575V34.6473V34.6371V34.6269V34.6167V34.6065V34.5963V34.5861V34.5759V34.5657V34.5555V34.5453V34.5351V34.5249V34.5147V34.5045V34.4943V34.4842V34.474V34.4638V34.4536V34.4434V34.4333V34.4231V34.4129V34.4027V34.3926V34.3824V34.3722V34.3621V34.3519V34.3417V34.3316V34.3214V34.3113V34.3011V34.2909V34.2808V34.2706V34.2605V34.2503V34.2402V34.23V34.2199V34.2097V34.1996V34.1895V34.1793V34.1692V34.159V34.1489V34.1388V34.1286V34.1185V34.1084V34.0982V34.0881V34.078V34.0679V34.0577V34.0476V34.0375V34.0274V34.0172V34.0071V33.997V33.9869V33.9768V33.9667V33.9566V33.9464V33.9363V33.9262V33.9161V33.906V33.8959V33.8858V33.8757V33.8656V33.8555V33.8454V33.8353V33.8252V33.8151V33.805V33.7949V33.7848V33.7747V33.7646V33.7545V33.7444V33.7344V33.7243V33.7142V33.7041V33.694V33.6839V33.6738V33.6638V33.6537V33.6436V33.6335V33.6234V33.6134V33.6033V33.5932V33.5831V33.5731V33.563V33.5529V33.5429V33.5328V33.5227V33.5126V33.5026V33.4925V33.4824V33.4724V33.4623V33.4523V33.4422V33.4321V33.4221V33.412V33.402V33.3919V33.3818V33.3718V33.3617V33.3517V33.3416V33.3316V33.3215V33.3115V33.3014V33.2914V33.2813V33.2713V33.2612V33.2512V33.2411V33.2311V33.221V33.211V33.2009V33.1909V33.1808V33.1708V33.1607V33.1507V33.1407V33.1306V33.1206V33.1105V33.1005V33.0905V33.0804V33.0704V33.0604V33.0503V33.0403V33.0302V33.0202V33.0102V33.0001V32.9901V32.9801V32.97V32.96V32.95V32.9399V32.9299V32.9199V32.9099V32.8998V32.8898V32.8798V32.8697V32.8597V32.8497V32.8397V32.8296V32.8196V32.8096V32.7995V32.7895V32.7795V32.7695V32.7594V32.7494V32.7394V32.7294V32.7194V32.7093V32.6993V32.6893V32.6793V32.6692V32.6592V32.6492V32.6392V32.6292V32.6191V32.6091V32.5991V32.5891V32.579V32.569V32.559V32.549V32.539V32.5289V32.5189V32.5089V32.4989V32.4889V32.4788V32.4688V32.4588V32.4488V32.4388V32.4288V32.4187V32.4087V32.3987V32.3887V32.3787V32.3686V32.3586V32.3486V32.3386V32.3286V32.3185V32.3085V32.2985V32.2885V32.2785V32.2684V32.2584V32.2484V32.2384V32.2284V32.2184V32.2136C426.556 22.5966 420.15 15.443 410.595 14.6661L439.77 37.2974ZM439.77 37.2974L439.925 36.1837M439.77 37.2974L439.925 36.1837M439.925 36.1837C442.032 21.0825 433.38 6.73878 418.855 2.90343C413.852 1.5744 408.448 1.54542 403.373 1.51819C402.611 1.5141 401.856 1.51005 401.111 1.50165L401.11 1.50164C388.139 1.36377 375.94 9.95238 372.805 22.7307L372.805 22.731C371.906 26.3958 371.547 30.1607 371.328 33.9344C371.245 35.3732 371.182 36.7968 371.12 38.2186C371.016 40.582 370.912 42.9407 370.714 45.3569L370.559 47.2289L372.419 46.9651L383.656 45.3711L384.946 45.1882M439.925 36.1837L384.946 45.1882M384.946 45.1882V43.886M384.946 45.1882V43.886M384.946 43.886C384.946 42.4132 384.939 40.9762 384.933 39.5619C384.921 36.8026 384.909 34.1292 384.946 31.4426C385.067 23.2559 390.808 16.3209 398.771 15.0823M384.946 43.886L398.771 15.0823M398.771 15.0823C402.683 14.4859 406.651 14.3463 410.595 14.666L398.771 15.0823Z" fill="white" stroke="white" stroke-width="3"/>
<path d="M90.2084 89.1124L91.4 88.9622L101.968 87.6305L103.656 87.4179V89.1188C103.656 90.0465 103.618 90.9928 103.584 91.884C103.565 92.3672 103.546 92.8342 103.535 93.2733C103.501 94.5761 103.52 95.7579 103.702 96.8795L90.2084 89.1124ZM90.2084 89.1124L90.0943 90.308M90.2084 89.1124L90.0943 90.308M90.0943 90.308C88.5934 106.037 97.3685 119.767 112.164 123.335C116.319 124.348 120.773 124.371 125.008 124.393C126.355 124.4 127.68 124.407 128.966 124.445C135.414 124.66 141.177 122.504 146.276 118.816L90.0943 90.308ZM131.306 110.866L131.307 110.865C139.284 109.642 145.027 102.702 145.157 94.5233C145.157 94.5231 145.157 94.5229 145.157 94.5226L146.657 94.5465L131.306 110.866ZM131.306 110.866C127.296 111.484 123.225 111.608 119.185 111.233M131.306 110.866L119.185 111.233M119.185 111.233C110.907 110.439 104.986 104.816 103.702 96.8798L119.185 111.233Z" fill="white" stroke="white" stroke-width="3"/>
<path d="M545.031 34.0134L543.712 34.1732V35.5025V121.564V123.064H545.212H555.413H556.913V121.564V34.2666V32.5739L555.232 32.7775L545.031 34.0134Z" fill="white" stroke="white" stroke-width="3"/>
<path d="M91.542 2.76782H90.042V4.26782V84.821V86.5603L91.7624 86.3047L101.948 84.7914L103.228 84.6013V83.3077V4.26782V2.76782H101.728H91.542Z" fill="white" stroke="white" stroke-width="3"/>
<path d="M158.664 4.39379V2.89823L157.169 2.8938L146.963 2.86353L145.458 2.85907V4.36353V77.0021V78.7359L147.174 78.4865L157.38 77.0035L158.664 76.8169V75.5191V4.39379Z" fill="white" stroke="white" stroke-width="3"/>
<path d="M319.288 121.534V123.034H320.788H331.074H332.574V121.534V61.3647V59.6497L330.874 59.8781L320.588 61.2603L319.288 61.435V62.7469V121.534Z" fill="white" stroke="white" stroke-width="3"/>
<path d="M265.627 2.8335H264.127V4.3335V60.8403V62.5851L265.852 62.3233L276.124 60.7646L277.399 60.5711V59.2816V4.3335V2.8335H275.899H265.627Z" fill="white" stroke="white" stroke-width="3"/>
<path d="M265.451 67.8709L264.132 68.0314V69.3599V121.594V123.094H265.632H275.788H277.288V121.594V68.124V66.4304L275.606 66.635L265.451 67.8709Z" fill="white" stroke="white" stroke-width="3"/>
<path d="M575.667 16.0414V17.7728L577.381 17.5261L629.975 9.95452L634.183 9.34874L630.526 7.17974C625.565 4.23691 620.919 2.68213 615.806 2.68213H615.742H615.678H615.613H615.549H615.485H615.42H615.356H615.292H615.227H615.163H615.099H615.034H614.97H614.906H614.841H614.777H614.713H614.649H614.584H614.52H614.456H614.391H614.327H614.263H614.198H614.134H614.07H614.005H613.941H613.877H613.812H613.748H613.684H613.62H613.555H613.491H613.427H613.362H613.298H613.234H613.169H613.105H613.041H612.976H612.912H612.848H612.783H612.719H612.655H612.59H612.526H612.462H612.398H612.333H612.269H612.205H612.14H612.076H612.012H611.947H611.883H611.819H611.754H611.69H611.626H611.561H611.497H611.433H611.368H611.304H611.24H611.176H611.111H611.047H610.983H610.918H610.854H610.79H610.725H610.661H610.597H610.532H610.468H610.404H610.339H610.275H610.211H610.146H610.082H610.018H609.953H609.889H609.825H609.761H609.696H609.632H609.568H609.503H609.439H609.375H609.31H609.246H609.182H609.117H609.053H608.989H608.924H608.86H608.796H608.731H608.667H608.603H608.538H608.474H608.41H608.345H608.281H608.217H608.153H608.088H608.024H607.96H607.895H607.831H607.767H607.702H607.638H607.574H607.509H607.445H607.381H607.316H607.252H607.188H607.123H607.059H606.995H606.93H606.866H606.802H606.737H606.673H606.609H606.544H606.48H606.416H606.352H606.287H606.223H606.159H606.094H606.03H605.966H605.901H605.837H605.773H605.708H605.644H605.58H605.515H605.451H605.387H605.322H605.258H605.194H605.129H605.065H605.001H604.936H604.872H604.808H604.743H604.679H604.615H604.55H604.486H604.422H604.358H604.293H604.229H604.165H604.1H604.036H603.972H603.907H603.843H603.779H603.714H603.65H603.586H603.521H603.457H603.393H603.328H603.264H603.2H603.135H603.071H603.007H602.942H602.878H602.814H602.749H602.685H602.621H602.556H602.492H602.428H602.363H602.299H602.235H602.17H602.106H602.042H601.978H601.913H601.849H601.785H601.72H601.656H601.592H601.527H601.463H601.399H601.334H601.27H601.206H601.141H601.077H601.013H600.948H600.884H600.82H600.755H600.691H600.627H600.562H600.498H600.434H600.369H600.305H600.241H600.176H600.112H600.048H599.983H599.919H599.855H599.79H599.726H599.662H599.597H599.533H599.469H599.405H599.34H599.276H599.212H599.147H599.083H599.019H598.954H598.89H598.826H598.761H598.697H598.633H598.568H598.504H598.44H598.375H598.311H598.247H598.182H598.118H598.054H597.989H597.925H597.861H597.796H597.732H597.668H597.603H597.539H597.475H597.41H597.346H597.282H597.217H597.153H597.089H597.024H596.96H596.896H596.831H596.767H596.703H596.639H596.574H596.51H596.446H596.381H596.317H596.253H596.188H596.124H596.06H595.995H595.931H595.867H595.802H595.738H595.674H595.609H595.545H595.481H595.416H595.352H595.288H595.223H595.159H595.095H595.03H594.966H594.902H594.837H594.773H594.709H594.644H594.58H594.516H594.451H594.387H594.323H594.259H594.194H594.13H594.066H594.001H593.937H593.873H593.808H593.744H593.68H593.615H593.551H593.487H593.422H593.358H593.294H593.229H593.165H593.101H593.036H592.972H592.908H592.843H592.779H592.715H592.65H592.586H592.522H592.457H592.393H592.329H592.265H592.2H592.136H592.072H592.007H591.943H591.879H591.814H591.75H591.686H591.621H591.557H591.493H591.428H591.364H591.3H591.235H591.171H591.107H591.042H590.978H590.914H590.849H590.785H590.721H590.656H590.592H590.528H590.464H590.399H590.335H590.271H590.206H590.142H590.078H590.013H589.949H589.885H589.82H589.756H589.692H589.627H589.563H589.499H589.434H589.37H589.306H589.241H589.177H589.113H589.048H588.984H588.92H588.856H588.791H588.727H588.663H588.598H588.534H588.47H588.405H588.341H588.277H588.212H588.148H588.084H588.019H587.955H587.891H587.826H587.762H587.698H587.633H587.569H587.505H587.44H587.376H587.312H587.248H587.183H587.119H587.055H586.99H586.926H586.862H586.797H586.733H586.669H586.604H586.54H586.476H586.411H586.347H586.283H586.218H586.154H586.09H586.026H585.961H585.897H585.833H585.768H585.704H585.64H585.575H585.511H585.447H585.382H585.318H585.254H585.189H585.125H585.061H584.996H584.932H584.868H584.804H584.739H584.675H584.611H584.546H584.482H584.418H584.353H584.289H584.225H584.16H584.096H584.032H583.967H583.903H583.839H583.775H583.71H583.646H583.582H583.517H583.453H583.389H583.324H583.26H583.196H583.131H583.067H583.003H582.939H582.874H582.863H582.852H582.842H582.831H582.82H582.809H582.798H582.787H582.777H582.766H582.755H582.744H582.733H582.722H582.711H582.701H582.69H582.679H582.668H582.657H582.646H582.636H582.625H582.614H582.603H582.592H582.581H582.57H582.56H582.549H582.538H582.527H582.516H582.505H582.494H582.484H582.473H582.462H582.451H582.44H582.429H582.419H582.408H582.397H582.386H582.375H582.364H582.353H582.343H582.332H582.321H582.31H582.299H582.288H582.278H582.267H582.256H582.245H582.234H582.223H582.212H582.202H582.191H582.18H582.169H582.158H582.147H582.136H582.126H582.115H582.104H582.093H582.082H582.071H582.06H582.05H582.039H582.028H582.017H582.006H581.995H581.984H581.974H581.963H581.952H581.941H581.93H581.919H581.908H581.898H581.887H581.876H581.865H581.854H581.843H581.832H581.821H581.811H581.8H581.789H581.778H581.767H581.756H581.745H581.735H581.724H581.713H581.702H581.691H581.68H581.669H581.658H581.648H581.637H581.626H581.615H581.604H581.593H581.582H581.571H581.561H581.55H581.539H581.528H581.517H581.506H581.495H581.484H581.473H581.463H581.452H581.441H581.43H581.419H581.408H581.397H581.386H581.375H581.364H581.354H581.343H581.332H581.321H581.31H581.299H581.288H581.277H581.266H581.255H581.245H581.234H581.223H581.212H581.201H581.19H581.179H581.168H581.157H581.146H581.135H581.125H581.114H581.103H581.092H581.081H581.07H581.059H581.048H581.037H581.026H581.015H581.004H580.993H580.982H580.972H580.961H580.95H580.939H580.928H580.917H580.906H580.895H580.884H580.873H580.862H580.851H580.84H580.829H580.818H580.807H580.796H580.785H580.775H580.764H580.753H580.742H580.731H580.72H580.709H580.698H580.687H580.676H580.665H580.654H580.643H580.632H580.621H580.61H580.599H580.588H580.577H580.566H580.555H580.544H580.533H580.522H580.511H580.5H580.489H580.478H580.467H580.456H580.445H580.434H580.423H580.412H580.401H580.39H580.379H580.368H580.357H580.346H580.335H580.324H580.313H580.302H580.291H580.28H580.269H580.258H580.247H580.236H580.225H580.214H580.203H580.192H580.181H580.17H580.159H580.148H580.136H580.125H580.114H580.103H580.092H580.081H580.07H580.059H580.048H580.037H580.026H580.015H580.004H579.993H579.982H579.971H579.959H579.948H579.937H579.926H579.915H579.904H579.893H579.882H579.871H579.86H579.849H579.838H579.826H579.815H579.804H579.793H579.782H579.771H579.76H579.749H579.738H579.726H579.715H579.704H579.693H579.682H579.671H579.66H579.649H579.637H579.626H579.615H579.604H579.593H579.582H579.571H579.559H579.548H579.537H579.526H579.515H579.504H579.492H579.481H579.47H579.459H579.448H579.437H579.425H579.414H579.403H579.392H579.381H579.369H579.358H579.347H579.336H579.325H579.313H579.302H579.291H579.28H579.269H579.257H579.246H579.235H579.224H579.212H579.201H579.19H579.179H579.168H579.156H579.145H579.134H579.123H579.111H579.1H579.089H579.078H579.066H579.055H579.044H579.033H579.021H579.01H578.999H578.987H578.976H578.965H578.954H578.942H578.931H578.92H578.908H578.897H578.886H578.875H578.863H578.852H578.841H578.829H578.818H578.807H578.795H578.784H578.773H578.761H578.75H578.739H578.727H578.716H578.705H578.693H578.682H578.671H578.659H578.648H578.637H578.625H578.614H578.602H578.591H578.58H578.568H578.557H578.546H578.534H578.523H578.511H578.5H578.489H578.477H578.466H578.454H578.443H578.432H578.42H578.409H578.397H578.386H578.374H578.363H578.352H578.34H578.329H578.317H578.306H578.294H578.283H578.271H578.26H578.249H578.237H578.226H578.214H578.203H578.191H578.18H578.168H578.157H578.145H578.134H578.122H578.111H578.099H578.088H578.076H578.065H578.053H578.042H578.03H578.019H578.007H577.996H577.984H577.972H577.961H577.949H577.938H577.926H577.915H577.903H577.892H577.88H577.868H577.857H577.845H577.834H577.822H577.81H577.799H577.787H577.776H577.764H577.752H577.741H577.729H577.718H577.706H577.694H577.683H577.671H577.66H577.648H577.636H577.625H577.613H577.601H577.59H577.578H577.566H577.555H577.543H577.531H577.52H577.508H577.496H577.485H577.473H577.461H577.449H577.438H577.426H577.414H577.403H577.391H577.379H577.367H577.356H577.344H577.332H577.32H577.309H577.297H577.285H577.273H577.262H577.25H577.238H577.226H577.215H577.203H577.191H577.179H577.167H575.667V4.18213V16.0414Z" fill="white" stroke="white" stroke-width="3"/>
<path d="M60.7657 92.7117L59.0605 92.9407L59.5198 94.5988C60.0339 96.4551 60.5435 98.3002 61.0506 100.136C62.9985 107.188 64.9086 114.103 66.8912 120.995L66.8912 120.995C67.0316 121.483 67.3315 121.835 67.5566 122.052C67.7997 122.286 68.0764 122.477 68.3407 122.627C68.8371 122.909 69.5038 123.163 70.1495 123.189C72.3625 123.278 74.5949 123.265 76.9719 123.251C77.8704 123.246 78.7896 123.241 79.7361 123.241H81.7422L81.1749 121.316C78.2764 111.485 75.4784 101.982 72.6604 92.3981L72.2973 91.1633L71.0217 91.3346L60.7657 92.7117Z" fill="white" stroke="white" stroke-width="3"/>
<path d="M468.873 33.0872L470.154 32.8982V31.6032V4.3335V2.8335H468.654H458.393H456.893V4.3335V33.1165V34.854L458.612 34.6005L468.873 33.0872Z" fill="white" stroke="white" stroke-width="3"/>
<path d="M14.5849 123.189C15.2426 123.163 15.9134 122.896 16.4016 122.615C16.663 122.464 16.9348 122.274 17.1732 122.046C17.3907 121.837 17.6916 121.491 17.8354 121.01L17.8375 121.003L17.8395 120.996C19.4186 115.525 20.929 110.03 22.4929 104.34C22.9507 102.674 23.4131 100.992 23.8832 99.2887L24.4671 97.1728L22.2837 97.3975C21.3371 97.4949 20.4187 97.5854 19.5218 97.6738C17.0623 97.9161 14.764 98.1426 12.4871 98.4526L12.4563 98.4568L12.4257 98.4623C11.8598 98.5633 11.3247 98.7926 10.8612 99.1324C10.3977 99.4722 10.018 99.9133 9.75099 100.422L9.68524 100.547L9.64407 100.683C8.00854 106.059 6.43632 111.456 4.81928 117.007C4.40316 118.435 3.98408 119.874 3.56018 121.325L2.99912 123.246H5C5.90491 123.246 6.78631 123.25 7.65016 123.255C10.0547 123.267 12.3234 123.279 14.5849 123.189ZM14.5849 123.189C14.5845 123.189 14.5841 123.189 14.5837 123.189L14.5263 121.69M14.5849 123.189C14.5853 123.189 14.5857 123.189 14.5861 123.189L14.5263 121.69M14.5263 121.69C12.3009 121.779 10.081 121.767 7.68784 121.755C7.3168 121.753 6.94161 121.751 6.56158 121.749C6.52104 121.888 6.48046 122.027 6.43982 122.166L5 121.746V120.246C5.14686 120.246 5.29275 120.246 5.43773 120.246C5.71375 119.3 5.98789 118.359 6.26067 117.422C7.87741 111.872 9.44645 106.486 11.0791 101.119C11.2401 100.813 11.4689 100.547 11.748 100.342C12.0271 100.138 12.3491 99.9997 12.6895 99.9389C14.9366 99.6329 17.1945 99.4104 19.6439 99.1691C20.0363 99.1304 20.4336 99.0913 20.8366 99.0512C20.8881 98.8646 20.9396 98.6778 20.9913 98.4906L22.4372 98.8896L22.5908 100.382C22.3954 100.402 22.2017 100.422 22.0095 100.441C21.6849 101.62 21.3638 102.788 21.045 103.948C19.4815 109.636 17.9746 115.119 16.3984 120.58C16.2474 121.085 15.1856 121.665 14.5263 121.69Z" fill="white" stroke="white" stroke-width="3"/>
<path d="M513.754 2.75781H512.254V4.25781V25.1515V26.8844L513.969 26.636L524.175 25.158L525.46 24.9719V23.6735V4.25781V2.75781H523.96H513.754Z" fill="white" stroke="white" stroke-width="3"/>
<path d="M545.167 2.75781H543.667V4.25781V20.6469V22.386L545.387 22.1306L555.582 20.6173L556.862 20.4274V19.1336V4.25781V2.75781H555.362H545.167Z" fill="white" stroke="white" stroke-width="3"/>
<path d="M649 5.48145V4.90596L648.43 4.98635L6.93015 95.4864L6.5 95.547V95.9814V100.481V101.045L7.05997 100.978L648.56 23.4778L649 23.4247V22.9814V5.48145Z" fill="#212121" stroke="#212121"/>
</svg>
